<svg height="512pt" viewBox="-45 0 512 512.00001" width="512pt" xmlns="http://www.w3.org/2000/svg"><path d="m355.835938 143.800781 66.308593 115.109375h-293.058593v-230.210937h293.058593zm0 0" fill="#ff501a"/><path d="m422.144531 258.910156h-293.058593v-115.109375h226.75zm0 0" fill="#c91d00"/><path d="m65.417969 0h93.667969v447.332031h-93.667969zm0 0" fill="#4a696f"/><path d="m112.25 0h46.832031v447.332031h-46.832031zm0 0" fill="#3e5959"/><path d="m33.585938 417.332031h157.332031v94.667969h-157.332031zm0 0" fill="#7ca1b1"/><path d="m112.25 417.332031h78.667969v94.667969h-78.667969zm0 0" fill="#678d98"/><path d="m0 482h224.5v30h-224.5zm0 0" fill="#4a696f"/><path d="m112.25 482h112.25v30h-112.25zm0 0" fill="#3e5959"/></svg>