<?xml version="1.0" encoding="iso-8859-1"?>
<!-- Generator: Adobe Illustrator 19.0.0, SVG Export Plug-In . SVG Version: 6.00 Build 0)  -->
<svg version="1.1" id="Capa_1" xmlns="http://www.w3.org/2000/svg" xmlns:xlink="http://www.w3.org/1999/xlink" x="0px" y="0px"
	 viewBox="0 0 512 512" style="enable-background:new 0 0 512 512;" xml:space="preserve">
<g>
	<path style="fill:#F2BB80;" d="M328.547,102.4c21.205,0,38.4-17.195,38.4-38.4V46.933c0-21.205-17.195-38.4-38.4-38.4
		s-38.4,17.195-38.4,38.4V64C290.147,85.205,307.342,102.4,328.547,102.4z"/>
	<path style="fill:#F2BB80;" d="M315.747,366.933l-12.8,102.4h46.933l21.623-115.328c2.432-12.954-2.816-26.146-13.474-33.894
		l-26.607-19.354l-34.833,52.241L315.747,366.933z"/>
</g>
<g>
	<path style="fill:#4398D1;" d="M8.547,341.333v66.253c0,5.828,4.719,10.547,10.547,10.547l0,0l0,0c3.994,0,7.646-2.261,9.438-5.828
		L42.68,384v-42.667H8.547z"/>
	<path style="fill:#4398D1;" d="M298.68,503.467h65.707c6.127,0,11.093-4.966,11.093-11.093l0,0c0-3.712-1.86-7.185-4.949-9.25
		l-20.651-13.79h-46.933L298.68,503.467z"/>
</g>
<path style="fill:#F2BB80;" d="M126.469,118.076L59.747,221.867l25.6,17.067l76.8-85.333h42.667v-51.2h-49.63
	C143.57,102.4,132.75,108.305,126.469,118.076z"/>
<path style="fill:#4398D1;" d="M262.917,105.651c-4.54-2.133-9.489-3.243-14.507-3.251h-43.597v51.2h25.6l-40.832,69.12
	l92.032,41.813l42.667-68.267l27.81,12.646l24.815-49.621L262.917,105.651z"/>
<path style="fill:#F2BB80;" d="M503.48,110.933l-25.6-17.067l-76.8,76.8l-24.175-11.375l-24.815,49.621l39.629,18.005
	c15.232,6.929,33.246,1.792,42.53-12.134L503.48,110.933z"/>
<polygon style="fill:#666666;" points="131.154,321.57 188.925,350.455 221.88,298.667 296.59,352.998 331.423,300.757 
	281.614,264.533 189.582,222.703 "/>
<path style="fill:#F2BB80;" d="M119.48,341.333h-76.8V384l99.166,7.083c12.51,0.896,24.499-5.137,31.232-15.718l15.846-24.909
	l-57.771-28.885L119.48,341.333z"/>
<path style="fill:#E8A864;" d="M345.673,12.74c2.731,5.299,4.173,11.17,4.207,17.126v17.067c0,21.205-17.195,38.4-38.4,38.4
	c-5.956-0.034-11.827-1.476-17.126-4.207c9.395,18.944,32.367,26.692,51.311,17.297C358.738,91.938,366.99,78.592,366.947,64V46.933
	C366.913,32.427,358.678,19.183,345.673,12.74z"/>
<path style="fill:#3E8CC7;" d="M234.04,242.91l47.573,21.623l42.667-68.267l27.81,12.646l24.815-49.621l-40.175-18.91
	C307.965,179.627,273.328,214.204,234.04,242.91z"/>
<path style="fill:#595959;" d="M152.172,286.012l-21.018,35.558l57.771,28.885l32.956-51.789l74.709,54.332l34.833-52.241
	l-49.809-36.224l-47.573-21.623C208.944,261.103,181.373,275.61,152.172,286.012z"/>
<path d="M328.547,110.933c25.907-0.026,46.908-21.026,46.933-46.933V46.933C375.48,21.009,354.471,0,328.547,0
	s-46.933,21.009-46.933,46.933V64C281.639,89.907,302.64,110.908,328.547,110.933z M298.68,46.933
	c0-16.495,13.372-29.867,29.867-29.867s29.867,13.372,29.867,29.867V64c0,16.495-13.372,29.867-29.867,29.867
	S298.68,80.495,298.68,64V46.933z"/>
<path d="M19.094,426.667c7.236,0.017,13.85-4.07,17.067-10.547L47.8,392.918l93.474,6.682c15.633,1.126,30.618-6.409,39.04-19.627
	l43.921-69.026l82.458,59.955l-16.478,131.507c-0.58,4.676,2.731,8.943,7.407,9.523c0.35,0.043,0.708,0.068,1.058,0.068h65.707
	c10.837,0.051,19.669-8.704,19.712-19.541c0.026-6.622-3.285-12.809-8.806-16.461l-16.026-10.633l20.591-109.79
	c3.004-16.188-3.524-32.674-16.811-42.402l-69.973-50.893l34.492-55.185l60.587,27.554c19.038,8.73,41.6,2.295,53.163-15.164
	l69.231-103.851c2.62-3.917,1.562-9.216-2.364-11.836l0,0l-25.6-17.067c-3.388-2.261-7.893-1.809-10.769,1.067l-72.533,72.533
	L266.544,97.869c-5.692-2.645-11.887-4.011-18.159-4.002h-93.201c-14.532-0.026-28.075,7.373-35.891,19.627L52.571,217.25
	c-2.517,3.917-1.434,9.131,2.441,11.716l25.6,17.067c3.533,2.364,8.26,1.766,11.093-1.391l74.24-82.509h49.493L114.608,332.8H8.547
	c-4.71,0-8.533,3.823-8.533,8.533v66.253C0.022,418.116,8.556,426.658,19.094,426.667z M365.795,490.197
	c1.203,0.742,1.57,2.321,0.828,3.524c-0.478,0.768-1.331,1.237-2.236,1.212h-56.038l2.133-17.067h36.838L365.795,490.197z
	 M363.116,352.427L342.798,460.8h-30.182l11.597-92.809c0.393-3.081-0.913-6.127-3.413-7.962l-12.561-9.114l25.353-38.033
	l19.422,14.123C360.982,332.834,364.908,342.716,363.116,352.427z M319.775,302.831l-25.361,38.042l-67.524-49.109
	c-3.814-2.773-9.148-1.929-11.921,1.877c-0.102,0.145-0.205,0.29-0.299,0.444l-28.817,45.295l-42.667-21.333l49.869-84.386
	l84.258,38.298L319.775,302.831z M407.114,176.7l71.851-71.851l12.681,8.448l-64.495,96.751
	c-6.946,10.47-20.471,14.336-31.898,9.105L363.687,204.8l17.126-34.253l16.631,7.834C400.696,179.917,404.571,179.243,407.114,176.7
	z M162.147,145.067c-2.415,0-4.719,1.024-6.34,2.825l-71.868,79.846l-12.476-8.32l62.182-96.725
	c4.693-7.347,12.817-11.776,21.538-11.759h41.097v34.133H162.147z M237.829,149.333c-1.527-2.645-4.361-4.275-7.415-4.267h-17.067
	v-34.133h35.038c3.763,0.009,7.484,0.836,10.897,2.441l106.078,49.911l-17.186,34.458l-20.361-9.242
	c-3.891-1.775-8.499-0.384-10.769,3.243l-38.707,61.926l-76.578-34.807l36.002-60.919
	C239.331,155.298,239.365,152.004,237.829,149.333z M119.48,349.867c3.021,0,5.811-1.596,7.347-4.19l7.629-12.877l42.197,21.06
	l-10.769,16.922c-5.06,7.919-14.046,12.45-23.424,11.793l-91.247-6.519v-26.189L119.48,349.867L119.48,349.867z M17.08,349.867
	h17.067v32.119l-13.244,26.453c-0.631,0.964-1.929,1.237-2.893,0.614c-0.503-0.333-0.845-0.862-0.93-1.468
	C17.08,407.586,17.08,349.867,17.08,349.867z"/>
<g>
</g>
<g>
</g>
<g>
</g>
<g>
</g>
<g>
</g>
<g>
</g>
<g>
</g>
<g>
</g>
<g>
</g>
<g>
</g>
<g>
</g>
<g>
</g>
<g>
</g>
<g>
</g>
<g>
</g>
</svg>
